<svg id="visual" viewBox="0 0 960 540" width="960" height="540" xmlns="http://www.w3.org/2000/svg" xmlns:xlink="http://www.w3.org/1999/xlink" version="1.1"><path d="M0 44L16 47.7C32 51.3 64 58.7 96 58.7C128 58.7 160 51.3 192 47.7C224 44 256 44 288 44C320 44 352 44 384 45C416 46 448 48 480 50.7C512 53.3 544 56.7 576 62C608 67.3 640 74.7 672 72C704 69.3 736 56.7 768 45.8C800 35 832 26 864 23.3C896 20.7 928 24.3 944 26.2L960 28L960 0L944 0C928 0 896 0 864 0C832 0 800 0 768 0C736 0 704 0 672 0C640 0 608 0 576 0C544 0 512 0 480 0C448 0 416 0 384 0C352 0 320 0 288 0C256 0 224 0 192 0C160 0 128 0 96 0C64 0 32 0 16 0L0 0Z" fill="#61afef"></path><path d="M0 104L16 105.7C32 107.3 64 110.7 96 108.8C128 107 160 100 192 92C224 84 256 75 288 70.5C320 66 352 66 384 69.5C416 73 448 80 480 81.8C512 83.7 544 80.3 576 83.2C608 86 640 95 672 96.7C704 98.3 736 92.7 768 89C800 85.3 832 83.7 864 84.7C896 85.7 928 89.3 944 91.2L960 93L960 26L944 24.2C928 22.3 896 18.7 864 21.3C832 24 800 33 768 43.8C736 54.7 704 67.3 672 70C640 72.7 608 65.3 576 60C544 54.7 512 51.3 480 48.7C448 46 416 44 384 43C352 42 320 42 288 42C256 42 224 42 192 45.7C160 49.3 128 56.7 96 56.7C64 56.7 32 49.3 16 45.7L0 42Z" fill="#549fde"></path><path d="M0 244L16 243.2C32 242.3 64 240.7 96 239.8C128 239 160 239 192 222.7C224 206.3 256 173.7 288 157.3C320 141 352 141 384 153.7C416 166.3 448 191.7 480 198C512 204.3 544 191.7 576 195.3C608 199 640 219 672 238C704 257 736 275 768 263.2C800 251.3 832 209.7 864 201.5C896 193.3 928 218.7 944 231.3L960 244L960 91L944 89.2C928 87.3 896 83.7 864 82.7C832 81.7 800 83.3 768 87C736 90.7 704 96.3 672 94.7C640 93 608 84 576 81.2C544 78.3 512 81.7 480 79.8C448 78 416 71 384 67.5C352 64 320 64 288 68.5C256 73 224 82 192 90C160 98 128 105 96 106.8C64 108.7 32 105.3 16 103.7L0 102Z" fill="#478fcd"></path><path d="M0 303L16 295.8C32 288.7 64 274.3 96 271.7C128 269 160 278 192 266.3C224 254.7 256 222.3 288 206.2C320 190 352 190 384 209.8C416 229.7 448 269.3 480 282C512 294.7 544 280.3 576 280.3C608 280.3 640 294.7 672 307.2C704 319.7 736 330.3 768 314.2C800 298 832 255 864 249.7C896 244.3 928 276.7 944 292.8L960 309L960 242L944 229.3C928 216.7 896 191.3 864 199.5C832 207.7 800 249.3 768 261.2C736 273 704 255 672 236C640 217 608 197 576 193.3C544 189.7 512 202.3 480 196C448 189.7 416 164.3 384 151.7C352 139 320 139 288 155.3C256 171.7 224 204.3 192 220.7C160 237 128 237 96 237.8C64 238.7 32 240.3 16 241.2L0 242Z" fill="#3980bd"></path><path d="M0 341L16 344.7C32 348.3 64 355.7 96 367.3C128 379 160 395 192 386.8C224 378.7 256 346.3 288 331.2C320 316 352 318 384 334.2C416 350.3 448 380.7 480 379.7C512 378.7 544 346.3 576 348.2C608 350 640 386 672 405.8C704 425.7 736 429.3 768 407.8C800 386.3 832 339.7 864 337.8C896 336 928 379 944 400.5L960 422L960 307L944 290.8C928 274.7 896 242.3 864 247.7C832 253 800 296 768 312.2C736 328.3 704 317.7 672 305.2C640 292.7 608 278.3 576 278.3C544 278.3 512 292.7 480 280C448 267.3 416 227.7 384 207.8C352 188 320 188 288 204.2C256 220.3 224 252.7 192 264.3C160 276 128 267 96 269.7C64 272.3 32 286.7 16 293.8L0 301Z" fill="#2a71ac"></path><path d="M0 384L16 387.7C32 391.3 64 398.7 96 406C128 413.3 160 420.7 192 417C224 413.3 256 398.7 288 383.3C320 368 352 352 384 360.2C416 368.3 448 400.7 480 407C512 413.3 544 393.7 576 401.8C608 410 640 446 672 463C704 480 736 478 768 455.5C800 433 832 390 864 386.5C896 383 928 419 944 437L960 455L960 420L944 398.5C928 377 896 334 864 335.8C832 337.7 800 384.3 768 405.8C736 427.3 704 423.7 672 403.8C640 384 608 348 576 346.2C544 344.3 512 376.7 480 377.7C448 378.7 416 348.3 384 332.2C352 316 320 314 288 329.2C256 344.3 224 376.7 192 384.8C160 393 128 377 96 365.3C64 353.7 32 346.3 16 342.7L0 339Z" fill="#19629c"></path><path d="M0 541L16 541C32 541 64 541 96 541C128 541 160 541 192 541C224 541 256 541 288 541C320 541 352 541 384 541C416 541 448 541 480 541C512 541 544 541 576 541C608 541 640 541 672 541C704 541 736 541 768 541C800 541 832 541 864 541C896 541 928 541 944 541L960 541L960 453L944 435C928 417 896 381 864 384.5C832 388 800 431 768 453.5C736 476 704 478 672 461C640 444 608 408 576 399.8C544 391.7 512 411.3 480 405C448 398.7 416 366.3 384 358.2C352 350 320 366 288 381.3C256 396.7 224 411.3 192 415C160 418.7 128 411.3 96 404C64 396.7 32 389.3 16 385.7L0 382Z" fill="#00548c"></path></svg>