<svg id="visual" viewBox="0 0 960 540" width="960" height="540" xmlns="http://www.w3.org/2000/svg" xmlns:xlink="http://www.w3.org/1999/xlink" version="1.1"><rect x="0" y="0" width="960" height="540" fill="#10141a"></rect><path d="M0 160L14.5 161.7C29 163.3 58 166.7 87.2 163.8C116.3 161 145.7 152 174.8 158.2C204 164.3 233 185.7 262 185.5C291 185.3 320 163.7 349 166.2C378 168.7 407 195.3 436.2 189.5C465.3 183.7 494.7 145.3 523.8 124.2C553 103 582 99 611 106.7C640 114.3 669 133.7 698 147.3C727 161 756 169 785.2 160.5C814.3 152 843.7 127 872.8 132.3C902 137.7 931 173.3 945.5 191.2L960 209L960 541L945.5 541C931 541 902 541 872.8 541C843.7 541 814.3 541 785.2 541C756 541 727 541 698 541C669 541 640 541 611 541C582 541 553 541 523.8 541C494.7 541 465.3 541 436.2 541C407 541 378 541 349 541C320 541 291 541 262 541C233 541 204 541 174.8 541C145.7 541 116.3 541 87.2 541C58 541 29 541 14.5 541L0 541Z" fill="#151b24"></path><path d="M0 176L14.5 186.8C29 197.7 58 219.3 87.2 219C116.3 218.7 145.7 196.3 174.8 196.3C204 196.3 233 218.7 262 223.7C291 228.7 320 216.3 349 219.2C378 222 407 240 436.2 245C465.3 250 494.7 242 523.8 222.5C553 203 582 172 611 170.5C640 169 669 197 698 193.7C727 190.3 756 155.7 785.2 156.5C814.3 157.3 843.7 193.7 872.8 214.3C902 235 931 240 945.5 242.5L960 245L960 541L945.5 541C931 541 902 541 872.8 541C843.7 541 814.3 541 785.2 541C756 541 727 541 698 541C669 541 640 541 611 541C582 541 553 541 523.8 541C494.7 541 465.3 541 436.2 541C407 541 378 541 349 541C320 541 291 541 262 541C233 541 204 541 174.8 541C145.7 541 116.3 541 87.2 541C58 541 29 541 14.5 541L0 541Z" fill="#141a22"></path><path d="M0 264L14.5 262.2C29 260.3 58 256.7 87.2 254C116.3 251.3 145.7 249.7 174.8 248C204 246.3 233 244.7 262 247.3C291 250 320 257 349 244.7C378 232.3 407 200.7 436.2 185C465.3 169.3 494.7 169.7 523.8 183.7C553 197.7 582 225.3 611 230.8C640 236.3 669 219.7 698 218.5C727 217.3 756 231.7 785.2 233.5C814.3 235.3 843.7 224.7 872.8 223.7C902 222.7 931 231.3 945.5 235.7L960 240L960 541L945.5 541C931 541 902 541 872.8 541C843.7 541 814.3 541 785.2 541C756 541 727 541 698 541C669 541 640 541 611 541C582 541 553 541 523.8 541C494.7 541 465.3 541 436.2 541C407 541 378 541 349 541C320 541 291 541 262 541C233 541 204 541 174.8 541C145.7 541 116.3 541 87.2 541C58 541 29 541 14.5 541L0 541Z" fill="#131920"></path><path d="M0 226L14.5 226.8C29 227.7 58 229.3 87.2 238.8C116.3 248.3 145.7 265.7 174.8 265.5C204 265.3 233 247.7 262 242C291 236.3 320 242.7 349 248.8C378 255 407 261 436.2 269.2C465.3 277.3 494.7 287.7 523.8 283.5C553 279.3 582 260.7 611 253.7C640 246.7 669 251.3 698 243.7C727 236 756 216 785.2 221C814.3 226 843.7 256 872.8 268.3C902 280.7 931 275.3 945.5 272.7L960 270L960 541L945.5 541C931 541 902 541 872.8 541C843.7 541 814.3 541 785.2 541C756 541 727 541 698 541C669 541 640 541 611 541C582 541 553 541 523.8 541C494.7 541 465.3 541 436.2 541C407 541 378 541 349 541C320 541 291 541 262 541C233 541 204 541 174.8 541C145.7 541 116.3 541 87.2 541C58 541 29 541 14.5 541L0 541Z" fill="#12181e"></path><path d="M0 236L14.5 235.5C29 235 58 234 87.2 234C116.3 234 145.7 235 174.8 236.2C204 237.3 233 238.7 262 243.2C291 247.7 320 255.3 349 261.8C378 268.3 407 273.7 436.2 273.3C465.3 273 494.7 267 523.8 262C553 257 582 253 611 258.2C640 263.3 669 277.7 698 290.3C727 303 756 314 785.2 309.5C814.3 305 843.7 285 872.8 277.8C902 270.7 931 276.3 945.5 279.2L960 282L960 541L945.5 541C931 541 902 541 872.8 541C843.7 541 814.3 541 785.2 541C756 541 727 541 698 541C669 541 640 541 611 541C582 541 553 541 523.8 541C494.7 541 465.3 541 436.2 541C407 541 378 541 349 541C320 541 291 541 262 541C233 541 204 541 174.8 541C145.7 541 116.3 541 87.2 541C58 541 29 541 14.5 541L0 541Z" fill="#11171d"></path><path d="M0 325L14.5 318.7C29 312.3 58 299.7 87.2 304.2C116.3 308.7 145.7 330.3 174.8 329.8C204 329.3 233 306.7 262 295C291 283.3 320 282.7 349 285.2C378 287.7 407 293.3 436.2 299.7C465.3 306 494.7 313 523.8 322.8C553 332.7 582 345.3 611 351C640 356.7 669 355.3 698 355C727 354.7 756 355.3 785.2 351C814.3 346.7 843.7 337.3 872.8 324.7C902 312 931 296 945.5 288L960 280L960 541L945.5 541C931 541 902 541 872.8 541C843.7 541 814.3 541 785.2 541C756 541 727 541 698 541C669 541 640 541 611 541C582 541 553 541 523.8 541C494.7 541 465.3 541 436.2 541C407 541 378 541 349 541C320 541 291 541 262 541C233 541 204 541 174.8 541C145.7 541 116.3 541 87.2 541C58 541 29 541 14.5 541L0 541Z" fill="#11161b"></path><path d="M0 379L14.5 373C29 367 58 355 87.2 351C116.3 347 145.7 351 174.8 355.7C204 360.3 233 365.7 262 363.3C291 361 320 351 349 349.3C378 347.7 407 354.3 436.2 351.7C465.3 349 494.7 337 523.8 339.7C553 342.3 582 359.7 611 360.5C640 361.3 669 345.7 698 334.8C727 324 756 318 785.2 320.3C814.3 322.7 843.7 333.3 872.8 335.5C902 337.7 931 331.3 945.5 328.2L960 325L960 541L945.5 541C931 541 902 541 872.8 541C843.7 541 814.3 541 785.2 541C756 541 727 541 698 541C669 541 640 541 611 541C582 541 553 541 523.8 541C494.7 541 465.3 541 436.2 541C407 541 378 541 349 541C320 541 291 541 262 541C233 541 204 541 174.8 541C145.7 541 116.3 541 87.2 541C58 541 29 541 14.5 541L0 541Z" fill="#0f1419"></path><path d="M0 359L14.5 367.3C29 375.7 58 392.3 87.2 390.3C116.3 388.3 145.7 367.7 174.8 365.7C204 363.7 233 380.3 262 390.3C291 400.3 320 403.7 349 395.3C378 387 407 367 436.2 361.8C465.3 356.7 494.7 366.3 523.8 373.7C553 381 582 386 611 379.8C640 373.7 669 356.3 698 346.7C727 337 756 335 785.2 334.8C814.3 334.7 843.7 336.3 872.8 339.2C902 342 931 346 945.5 348L960 350L960 541L945.5 541C931 541 902 541 872.8 541C843.7 541 814.3 541 785.2 541C756 541 727 541 698 541C669 541 640 541 611 541C582 541 553 541 523.8 541C494.7 541 465.3 541 436.2 541C407 541 378 541 349 541C320 541 291 541 262 541C233 541 204 541 174.8 541C145.7 541 116.3 541 87.2 541C58 541 29 541 14.5 541L0 541Z" fill="#0e1317"></path><path d="M0 378L14.5 384.5C29 391 58 404 87.2 402.5C116.3 401 145.7 385 174.8 388C204 391 233 413 262 424.8C291 436.7 320 438.3 349 430.5C378 422.7 407 405.3 436.2 393.8C465.3 382.3 494.7 376.7 523.8 381.3C553 386 582 401 611 401.5C640 402 669 388 698 383.7C727 379.3 756 384.7 785.2 391.2C814.3 397.7 843.7 405.3 872.8 403.2C902 401 931 389 945.5 383L960 377L960 541L945.5 541C931 541 902 541 872.8 541C843.7 541 814.3 541 785.2 541C756 541 727 541 698 541C669 541 640 541 611 541C582 541 553 541 523.8 541C494.7 541 465.3 541 436.2 541C407 541 378 541 349 541C320 541 291 541 262 541C233 541 204 541 174.8 541C145.7 541 116.3 541 87.2 541C58 541 29 541 14.5 541L0 541Z" fill="#0d1116"></path><path d="M0 459L14.5 456.8C29 454.7 58 450.3 87.2 450.2C116.3 450 145.7 454 174.8 452.5C204 451 233 444 262 436.8C291 429.7 320 422.3 349 423C378 423.7 407 432.3 436.2 431.3C465.3 430.3 494.7 419.7 523.8 418.5C553 417.3 582 425.7 611 434.3C640 443 669 452 698 455C727 458 756 455 785.2 448.5C814.3 442 843.7 432 872.8 427C902 422 931 422 945.5 422L960 422L960 541L945.5 541C931 541 902 541 872.8 541C843.7 541 814.3 541 785.2 541C756 541 727 541 698 541C669 541 640 541 611 541C582 541 553 541 523.8 541C494.7 541 465.3 541 436.2 541C407 541 378 541 349 541C320 541 291 541 262 541C233 541 204 541 174.8 541C145.7 541 116.3 541 87.2 541C58 541 29 541 14.5 541L0 541Z" fill="#0c1014"></path><path d="M0 477L14.5 472.3C29 467.7 58 458.3 87.2 460.8C116.3 463.3 145.7 477.7 174.8 484.3C204 491 233 490 262 486C291 482 320 475 349 468.2C378 461.3 407 454.7 436.2 455.3C465.3 456 494.7 464 523.8 464.2C553 464.3 582 456.7 611 452C640 447.3 669 445.7 698 448.5C727 451.3 756 458.7 785.2 465.2C814.3 471.7 843.7 477.3 872.8 474.2C902 471 931 459 945.5 453L960 447L960 541L945.5 541C931 541 902 541 872.8 541C843.7 541 814.3 541 785.2 541C756 541 727 541 698 541C669 541 640 541 611 541C582 541 553 541 523.8 541C494.7 541 465.3 541 436.2 541C407 541 378 541 349 541C320 541 291 541 262 541C233 541 204 541 174.8 541C145.7 541 116.3 541 87.2 541C58 541 29 541 14.5 541L0 541Z" fill="#0a0e11"></path><path d="M0 518L14.5 514.3C29 510.7 58 503.3 87.2 500.2C116.3 497 145.7 498 174.8 496C204 494 233 489 262 491.8C291 494.7 320 505.3 349 507.7C378 510 407 504 436.2 503C465.3 502 494.7 506 523.8 502.7C553 499.3 582 488.7 611 486.5C640 484.3 669 490.7 698 490.5C727 490.3 756 483.7 785.2 482C814.3 480.3 843.7 483.7 872.8 489.5C902 495.3 931 503.7 945.5 507.8L960 512L960 541L945.5 541C931 541 902 541 872.8 541C843.7 541 814.3 541 785.2 541C756 541 727 541 698 541C669 541 640 541 611 541C582 541 553 541 523.8 541C494.7 541 465.3 541 436.2 541C407 541 378 541 349 541C320 541 291 541 262 541C233 541 204 541 174.8 541C145.7 541 116.3 541 87.2 541C58 541 29 541 14.5 541L0 541Z" fill="#090c0f"></path></svg>